<svg width="40" height="40" viewBox="0 0 40 40" fill="none" xmlns="http://www.w3.org/2000/svg">
<path d="M3.83333 21.625V20.625H6.98625C6.99541 16.8842 8.20597 13.7407 10.6179 11.1946C13.0301 8.64819 15.9908 7.31486 19.5 7.19458V5.5H20.5V7.19458C24.0092 7.31486 26.9744 8.64819 29.3958 11.1946C31.8172 13.7407 33.0232 16.8842 33.0137 20.625H36.1667V21.625H3.83333ZM7.95833 20.625H32.0417C32.0325 17.0694 30.8565 14.1018 28.5137 11.7221C26.1712 9.34264 23.3287 8.15292 19.9862 8.15292C16.6621 8.15292 13.8287 9.34264 11.4862 11.7221C9.14347 14.1018 7.9675 17.0694 7.95833 20.625ZM26.3054 21.625H12.75V31.8333H22.5554C23.1387 31.8333 23.7078 31.7369 24.2625 31.5442C24.8172 31.3517 25.3201 31.0626 25.7712 30.6771L32.75 24.7917C32.3981 24.4119 32.0022 24.1226 31.5625 23.9238C31.1228 23.7246 30.6714 23.5972 30.2083 23.5417C29.7575 23.5325 29.3183 23.5904 28.8908 23.7154C28.4636 23.8404 28.0544 24.0567 27.6633 24.3642L25.1946 26.3333H18V25.3333H24.8333L27.0696 23.5417C27.2546 23.3658 27.3749 23.1668 27.4304 22.9446C27.486 22.7224 27.4629 22.4908 27.3612 22.25C27.2593 22.0278 27.1135 21.8681 26.9237 21.7708C26.7337 21.6736 26.5276 21.625 26.3054 21.625ZM11.75 21.5833H7.83333C7.44444 21.5833 7.125 21.7129 6.875 21.9721C6.625 22.2315 6.5 22.5464 6.5 22.9167V32.1667C6.5 32.5556 6.625 32.875 6.875 33.125C7.125 33.375 7.44444 33.5 7.83333 33.5H10.4167C10.8056 33.5 11.125 33.375 11.375 33.125C11.625 32.875 11.75 32.5556 11.75 32.1667V21.5833ZM10.4167 34.5417H7.83333C7.17083 34.5417 6.61625 34.3185 6.16958 33.8721C5.72319 33.4254 5.5 32.8708 5.5 32.2083V22.9583C5.5 22.2958 5.72319 21.7414 6.16958 21.295C6.61625 20.8483 7.17083 20.625 7.83333 20.625H26.2637C27.6435 20.625 28.9375 20.9375 30.1458 21.5625C31.3542 22.1875 32.4629 23.0093 33.4721 24.0279L34.2638 24.8196L26.4167 31.4862C25.8825 31.9121 25.2749 32.25 24.5937 32.5C23.9126 32.75 23.2332 32.875 22.5554 32.875H12.6804C12.5324 33.375 12.2536 33.7778 11.8442 34.0833C11.4347 34.3889 10.9589 34.5417 10.4167 34.5417Z" fill="black"/>
</svg>
